<svg id="visual" viewBox="0 0 900 450" width="900" height="450" xmlns="http://www.w3.org/2000/svg" xmlns:xlink="http://www.w3.org/1999/xlink" version="1.1"><rect x="0" y="0" width="900" height="450" fill="#fff"></rect><path d="M0 388L25 396.3C50 404.7 100 421.3 150 426.3C200 431.3 250 424.7 300 415.8C350 407 400 396 450 398.3C500 400.7 550 416.3 600 419.8C650 423.3 700 414.7 750 415.8C800 417 850 428 875 433.5L900 439L900 451L875 451C850 451 800 451 750 451C700 451 650 451 600 451C550 451 500 451 450 451C400 451 350 451 300 451C250 451 200 451 150 451C100 451 50 451 25 451L0 451Z" fill="#101002" stroke-linecap="round" stroke-linejoin="miter"></path></svg>